HIERARCHY
ROOT Hips
{
	OFFSET -3.958830 18.904000 13.208200
	CHANNELS 6 Xposition Yposition Zposition Zrotation Yrotation Xrotation 
	JOINT LHipJoint
	{
		OFFSET 0.000000 0.000000 0.000000
		CHANNELS 3 Zrotation Yrotation Xrotation
		JOINT LeftUpLeg
		{
			OFFSET 1.800000 -1.400000 0.085000
			CHANNELS 3 Zrotation Yrotation Xrotation
			JOINT LeftLeg
			{
				OFFSET 2.215000 -6.000000 0.000000
				CHANNELS 3 Zrotation Yrotation Xrotation
				JOINT LeftFoot
				{
					OFFSET 2.500000 -6.900000 0.000000
					CHANNELS 3 Zrotation Yrotation Xrotation
					JOINT LeftToeBase
					{
						OFFSET 0.200000 -0.500000 1.950000
						CHANNELS 3 Zrotation Yrotation Xrotation
						End Site
						{
							OFFSET 0.000000 0.000000 0.000000
						}
					}
				}
			}
		}
	}
	JOINT RHipJoint
	{
		OFFSET 0.000000 0.000000 0.000000
		CHANNELS 3 Zrotation Yrotation Xrotation
		JOINT RightUpLeg
		{
			OFFSET -1.800000 -1.400000 0.085000
			CHANNELS 3 Zrotation Yrotation Xrotation
			JOINT RightLeg
			{
				OFFSET -2.215000 -6.000000 0.000000
				CHANNELS 3 Zrotation Yrotation Xrotation
				JOINT RightFoot
				{
					OFFSET -2.500000 -6.900000 0.000000
					CHANNELS 3 Zrotation Yrotation Xrotation
					JOINT RightToeBase
					{
						OFFSET -0.200000 -0.500000 1.950000
						CHANNELS 3 Zrotation Yrotation Xrotation
						End Site
						{
							OFFSET 0.000000 0.000000 0.000000
						}
					}
				}
			}
		}
	}
	JOINT LowerBack
	{
		OFFSET 0.000000 0.000000 0.000000
		CHANNELS 3 Zrotation Yrotation Xrotation
		JOINT Spine
		{
			OFFSET -0.087000 1.940000 -0.288900
			CHANNELS 3 Zrotation Yrotation Xrotation
			JOINT Spine1
			{
				OFFSET 0.000000 1.950000 0.060000
				CHANNELS 3 Zrotation Yrotation Xrotation
				JOINT Neck
				{
					OFFSET 0.000000 0.000000 0.000000
					CHANNELS 3 Zrotation Yrotation Xrotation
					JOINT Neck1
					{
						OFFSET 0.000000 1.600000 0.340000
						CHANNELS 3 Zrotation Yrotation Xrotation
						JOINT Head
						{
							OFFSET 0.000000 1.667000 -0.240000
							CHANNELS 3 Zrotation Yrotation Xrotation
							End Site
							{
								OFFSET 0.000000 0.000000 0.000000
							}
						}
					}
				}
				JOINT LeftShoulder
				{
					OFFSET 0.000000 0.000000 0.000000
					CHANNELS 3 Zrotation Yrotation Xrotation
					JOINT LeftArm
					{
						OFFSET 2.700000 1.550000 -0.730000
						CHANNELS 3 Zrotation Yrotation Xrotation
						JOINT LeftForeArm
						{
							OFFSET 5.450000 0.000000 0.000000
							CHANNELS 3 Zrotation Yrotation Xrotation
							JOINT LeftHand
							{
								OFFSET 3.450000 0.000000 0.000000
								CHANNELS 3 Zrotation Yrotation Xrotation
								JOINT LeftHandIndex1
								{
									OFFSET 0.750000 0.000000 0.000000
									CHANNELS 3 Zrotation Yrotation Xrotation
									End Site
									{
										OFFSET 0.000000 0.000000 0.000000
									}
								}
							}
						}
					}
				}
				JOINT RightShoulder
				{
					OFFSET 0.000000 0.000000 0.000000
					CHANNELS 3 Zrotation Yrotation Xrotation
					JOINT RightArm
					{
						OFFSET -2.700000 1.550000 -0.730000
						CHANNELS 3 Zrotation Yrotation Xrotation
						JOINT RightForeArm
						{
							OFFSET -5.450000 0.000000 0.000000
							CHANNELS 3 Zrotation Yrotation Xrotation
							JOINT RightHand
							{
								OFFSET -3.450000 0.000000 0.000000
								CHANNELS 3 Zrotation Yrotation Xrotation
								JOINT RightHandIndex1
								{
									OFFSET -0.750000 0.000000 0.000000
									CHANNELS 3 Zrotation Yrotation Xrotation
									End Site
									{
										OFFSET 0.000000 0.000000 0.000000
									}
								}
							}
						}
					}
				}
			}
		}
	}
}
MOTION
Frames: 10
Frame Time: 0.016667
-0.044300 18.002300 -5.450190 0.238725 -6.374308 -15.267943 -15.075410 12.986902 2.309166 5.917226 1.771477 2.179759 -6.357004 7.269082 14.457559 0.103221 5.158857 2.918498 0.119800 0.017470 0.019330 18.436510 -11.312257 2.813834 -9.994570 -1.650980 6.621556 10.256602 -7.101265 9.049242 -0.560280 -5.596633 2.525212 0.063190 0.441300 0.228590 -3.888819 -0.470776 -6.534704 6.509455 4.804821 1.533345 -0.660843 4.050749 25.611154 0.992509 -1.171584 -14.216949 -4.892699 4.690855 48.636041 0.355740 2.674580 5.557830 -3.398054 -20.174681 9.689066 -34.179142 -28.928607 0.558867 122.723245 -5.385396 -29.730670 -3.906219 3.377160 0.057640 0.308280 -0.142190 0.145830 2.965880 22.417264 10.577899 39.169749 25.637888 -5.644111 -124.035264 7.249577 -37.342830 2.054006 -2.289781 -0.109100 0.120800 0.072400 0.048830 
-0.031610 17.953080 -5.451070 0.380674 -5.205111 -17.187960 -15.097416 12.908941 2.310420 6.172933 2.138619 4.868250 -6.262001 7.380498 14.054141 0.028539 5.455919 2.830057 0.114280 -0.005030 0.047540 18.450658 -11.257080 2.797956 -10.458424 -1.863552 9.003834 10.153579 -7.342705 8.953224 -0.623576 -5.824284 2.440834 0.101560 0.463980 0.206200 -3.898119 -0.485538 -6.493369 6.576343 4.469781 1.913784 -0.886178 3.783624 27.947393 1.061843 -1.155802 -14.081388 -4.877869 3.977649 49.144439 -0.248430 1.832410 2.046290 -2.471923 -23.402024 9.856727 -32.397746 -31.451070 -0.613783 124.781256 -0.724522 -25.238424 -3.938451 3.307641 0.130620 0.307700 -0.149120 0.107840 2.052918 25.706373 10.793592 37.387903 28.432201 -7.572022 -126.231409 0.546466 -29.017433 2.005180 -2.336260 -0.188280 0.222460 0.129400 0.004450 
-0.015970 17.850580 -5.454780 0.991079 -4.516130 -18.986530 -15.131017 12.821893 2.378650 6.216857 2.736088 8.040858 -6.812543 7.591580 12.999440 0.160551 5.672592 2.784954 0.240160 0.164440 0.094100 18.447503 -11.195522 2.713763 -11.743120 -1.836568 10.738291 10.729828 -7.773385 9.913132 -0.710393 -6.130485 2.325529 0.200390 0.444620 0.217910 -3.864943 -0.534743 -6.451557 6.375619 4.464010 2.040592 -1.269530 3.917823 29.982061 0.997736 -1.409678 -13.789298 -5.548663 3.664253 48.257936 0.156730 0.850560 0.718770 -2.639761 -27.491557 9.774318 -26.832801 -34.094717 -2.350759 129.618413 5.398230 -17.095087 -3.904266 3.477739 0.070870 0.298240 -0.127340 0.178040 2.291955 30.077332 10.826132 31.060384 29.970226 -9.921288 -131.273276 -7.507975 -16.268086 2.048691 -2.653443 -0.131370 0.213570 0.035300 0.046160 
-0.002070 17.734120 -5.464990 1.262486 -3.657910 -20.597136 -15.210882 12.843068 2.406275 6.902410 3.201087 10.389113 -7.297167 7.927542 12.775921 0.242785 5.957433 2.724003 0.322520 0.295000 0.072200 18.392868 -11.083836 2.640852 -12.376735 -1.891119 12.519353 10.888516 -8.074728 10.750864 -0.759990 -6.416672 2.240843 0.302820 0.490850 0.213930 -3.684152 -0.800365 -6.401589 5.663842 4.691075 2.431623 -0.942232 4.077498 31.736216 0.859890 -1.356644 -13.393996 -5.552407 3.606875 45.491457 1.515790 0.101760 0.123250 -3.278946 -31.277795 9.350744 -21.335661 -36.537051 -4.044430 135.174294 10.024243 -9.914017 -3.911819 3.632115 0.006460 0.329150 -0.157350 0.258150 2.938073 33.615731 10.701866 23.165460 28.280596 -13.028453 -138.302810 -13.487163 -3.196768 2.091085 -2.990059 -0.123000 0.230610 -0.022470 0.091660 
0.011340 17.604940 -5.492070 1.205116 -2.973885 -22.206097 -15.291263 13.029345 2.396466 7.715550 3.296349 11.345430 -7.351441 8.509399 15.014433 0.363283 6.232549 2.642242 0.373520 0.420210 0.051960 18.302983 -11.009561 2.592805 -12.542186 -2.102139 13.964688 10.860480 -8.459486 12.254079 -0.822188 -6.610068 2.201998 0.354120 0.502000 0.227540 -3.443325 -1.238454 -6.423636 4.993189 3.524652 3.725187 -1.082713 3.333729 33.204330 1.146345 -1.948698 -13.724582 -6.537222 4.133136 43.709204 0.951500 0.634740 -1.014660 -3.037876 -34.527523 9.334839 -15.236765 -34.908756 -7.483313 141.893222 13.995351 -1.899961 -3.933485 3.783854 -0.046320 0.345800 -0.123840 0.322440 2.095106 37.344445 10.959323 15.519799 27.223119 -15.225852 -143.135820 -16.721382 4.765779 2.142259 -3.169114 -0.074030 0.241770 -0.079580 0.151160 
0.028260 17.486910 -5.507440 1.048981 -2.849665 -23.245227 -15.343853 13.173315 2.407979 8.440959 3.234546 11.782585 -7.523059 8.960123 16.645751 0.331935 6.581601 2.502926 0.361890 0.344440 0.084440 18.233258 -10.979839 2.536404 -12.778373 -2.035953 14.392720 11.271760 -9.033867 14.425579 -0.827654 -6.792119 2.083892 0.340240 0.505760 0.282050 -3.267141 -1.524012 -6.450063 4.767851 3.231720 4.973250 -0.850587 3.022870 33.763017 1.368678 -2.093689 -13.567308 -6.725822 4.180239 42.116267 0.337200 0.758040 -1.677630 -3.430561 -35.040402 8.884105 -11.452394 -34.606329 -7.506688 146.305687 14.388546 0.889486 -4.015767 3.840839 -0.021000 0.366380 -0.151970 0.262740 1.961806 37.822707 10.891679 10.305576 25.254908 -15.474888 -146.725465 -16.588397 7.260074 2.112377 -3.229445 -0.090010 0.210220 -0.013090 0.101470 
0.042600 17.386520 -5.532030 0.816496 -2.462050 -23.634487 -15.374832 13.356133 2.423530 8.949806 3.026713 11.198153 -7.859291 9.560856 18.978319 0.323297 6.877764 2.414634 0.356810 0.307350 0.085520 18.174169 -11.010009 2.444555 -12.518136 -1.851818 13.527136 10.976558 -9.490680 17.845813 -0.791398 -6.877731 2.050436 0.353390 0.534870 0.254510 -3.135142 -1.792369 -6.480442 4.428626 3.277974 6.255030 -0.469881 2.999601 33.862192 0.977607 -1.989992 -13.485081 -6.546340 3.394210 39.900480 1.234870 -0.351020 -1.623620 -4.471580 -34.849292 8.464344 -8.966917 -34.912271 -6.650071 145.772091 11.872526 -3.985677 -4.049823 3.733248 -0.017650 0.373410 -0.204460 0.257930 3.430042 37.266225 11.358658 7.267249 21.968693 -15.550230 -147.222498 -14.781703 3.854190 2.087579 -3.215563 -0.136770 0.233240 0.001180 0.081650 
0.061600 17.308900 -5.570900 0.350236 -2.658259 -23.450417 -15.322035 13.527779 2.475506 8.998952 2.559266 9.907258 -7.842876 9.801160 20.630982 0.199183 7.152985 2.358665 0.163330 0.016620 -0.021060 18.179980 -11.091369 2.388886 -11.886322 -1.642339 11.616391 10.350306 -9.799256 20.978447 -0.691072 -6.844124 2.060823 0.247350 0.690660 0.228060 -3.211405 -1.987614 -6.605239 5.385011 2.323583 7.600023 -0.851622 2.452928 32.673982 0.440796 -2.866576 -13.957000 -8.246943 3.658715 39.291361 2.403190 -1.668940 -0.241440 -4.698273 -33.782931 8.708675 -9.754568 -33.175507 -6.266427 144.430184 11.255616 -5.788340 -4.166181 3.555246 0.065600 0.422140 -0.306160 0.198640 4.646468 36.588616 11.902378 6.471388 20.126544 -15.194154 -145.734108 -12.145087 -2.666445 2.037684 -2.973439 -0.298570 0.349310 0.172450 0.043190 
0.096650 17.284810 -5.643300 -0.370142 -3.509187 -23.648620 -15.216481 13.624458 2.480009 9.324648 2.079315 8.431684 -7.635604 10.129053 23.019724 0.120689 7.312099 2.254630 0.126400 -0.058300 -0.004550 18.239968 -11.222265 2.365653 -11.348386 -1.354546 9.425052 10.246932 -10.222297 24.105030 -0.679110 -6.834354 2.038575 0.215300 0.654940 0.208400 -3.433883 -1.940150 -6.711381 7.371556 1.345210 10.099284 -1.646580 1.722638 31.690402 0.403718 -3.736433 -13.588574 -9.877918 4.455498 39.437207 2.757470 -1.408330 -2.053430 -6.448252 -32.023747 8.694441 -10.450675 -31.131322 -6.609979 140.130041 8.215276 -11.888575 -4.162262 3.384354 0.163450 0.376640 -0.286470 0.141720 6.432561 35.161093 11.624892 6.893393 20.022400 -14.484782 -140.480607 -6.754796 -15.202691 1.995514 -2.655811 -0.347920 0.373460 0.225770 -0.009110 
0.134640 17.289440 -5.736690 -1.360015 -3.950730 -23.581020 -15.132400 13.703438 2.437423 9.758666 1.617099 6.301770 -6.950593 10.236951 25.368852 0.113748 7.311981 2.200084 0.136980 -0.034210 0.034180 18.281560 -11.355564 2.366924 -10.502011 -0.840195 6.557146 10.387406 -10.770977 27.766175 -0.707246 -6.916359 1.991916 0.196350 0.580070 0.226650 -3.599555 -1.783123 -6.784105 9.165731 0.934442 12.848107 -2.011106 1.396300 30.324657 0.702357 -3.478006 -12.405046 -9.409523 4.082917 39.796123 1.178640 -0.636980 -3.576070 -8.836428 -28.857918 7.814900 -10.987181 -31.258802 -5.465762 133.866323 1.694106 -20.949263 -4.150452 3.193589 0.184390 0.348900 -0.229870 0.109260 8.086511 31.380094 10.853355 8.728919 19.232877 -13.222495 -134.107439 1.590026 -29.984902 1.964602 -2.354817 -0.304500 0.336620 0.214690 -0.024740 
